<svg xmlns="http://www.w3.org/2000/svg" viewBox="0 0 720 520" fill="none">
  <rect width="720" height="520" rx="40" fill="#0d2643" />
  <path d="M160 320c18-64 80-112 150-96 16-48 68-76 118-60 44 14 74 60 68 104 54 10 84 70 58 118-28 54-96 74-150 48-58 38-132 18-168-36-30-46-18-108 24-138Z" fill="#4d8cff" />
  <path d="M198 330c16-54 62-92 112-86 18-46 60-80 108-74 40 4 74 34 88 74 46 8 76 44 76 86 0 60-52 112-116 112h-216c-38 0-70-32-70-70 0-19 8-37 18-52Z" fill="#2dd4bf" opacity="0.9" />
  <path d="M384 198l68-40" stroke="#ffffff" stroke-width="12" stroke-linecap="round" opacity="0.7" />
  <path d="M340 260l96-16" stroke="#ffffff" stroke-width="10" stroke-linecap="round" opacity="0.7" />
  <circle cx="220" cy="408" r="16" fill="#ffffff" opacity="0.92" />
  <circle cx="520" cy="404" r="18" fill="#ffffff" opacity="0.92" />
  <circle cx="310" cy="120" r="24" fill="#67b5ff" />
  <circle cx="470" cy="130" r="20" fill="#33d0c9" />
</svg>
